<svg width="17" height="16" viewBox="0 0 17 16" fill="none" xmlns="http://www.w3.org/2000/svg">
<path d="M0.5 8C0.5 9.10457 1.39543 10 2.5 10C3.60457 10 4.5 9.10457 4.5 8C4.5 6.89543 3.60457 6 2.5 6C1.39543 6 0.5 6.89543 0.5 8Z" fill="#181818"/>
<path d="M6.5 8.04004C6.5 9.14461 7.39543 10.04 8.5 10.04C9.60457 10.04 10.5 9.14461 10.5 8.04004C10.5 6.93547 9.60457 6.04004 8.5 6.04004C7.39543 6.04004 6.5 6.93547 6.5 8.04004Z" fill="#181818"/>
<path d="M12.5 8.08008C12.5 9.18465 13.3954 10.0801 14.5 10.0801C15.6046 10.0801 16.5 9.18465 16.5 8.08008C16.5 6.97551 15.6046 6.08008 14.5 6.08008C13.3954 6.08008 12.5 6.97551 12.5 8.08008Z" fill="#181818"/>
</svg>
